<svg width="130" height="130" viewBox="0 0 130 130" fill="none" xmlns="http://www.w3.org/2000/svg">
<g filter="url(#filter0_d)">
<circle cx="65" cy="55" r="50" fill="white"/>
</g>
<path fill-rule="evenodd" clip-rule="evenodd" d="M77.6813 60.8595L54.2826 37.4607C50.2877 41.4558 43.6068 42.765 39.6119 46.7599C34.6953 51.6765 29.7787 56.5931 24.8621 61.5099C23.7926 62.5794 22.7229 63.6489 21.6534 64.7186C19.5901 66.7819 19.5901 70.1582 21.6534 72.2217C23.7168 74.2851 27.093 74.2851 29.1564 72.2217L27.8818 73.4963C25.8185 75.5596 25.8185 78.9359 27.8818 80.9993C29.9452 83.0626 33.3216 83.0626 35.3848 80.9993L34.0308 82.3533C31.9674 84.4166 31.9674 87.7931 34.0308 89.8564C36.0943 91.9198 39.4706 91.9198 41.5339 89.8564L42.8878 88.5026C40.8244 90.5659 40.8244 93.9422 42.8878 96.0057C44.9511 98.0691 48.3276 98.0691 50.3907 96.0057L52.9571 93.4394L63.0244 83.3721C63.8133 83.8321 64.0738 83.4925 64.8568 85.2322C65.415 86.4728 67.9068 91.5214 72.0906 95.4603C73.7738 97.0449 75.7307 98.4502 77.9458 99.3554C85.6669 102.511 88.1299 95.513 84.9741 92.2232C84.8856 92.1309 84.7951 92.0354 84.7026 91.9372C81.5038 88.5301 76.1489 81.5494 77.4541 74.632C78.3335 69.9737 77.8539 65.566 77.6813 60.8595V60.8595Z" fill="#FFDCD5"/>
<path fill-rule="evenodd" clip-rule="evenodd" d="M54.2825 37.4605L77.6811 60.8594C79.1583 62.3366 81.5756 62.3366 83.0526 60.8594L91.3035 52.6085L62.5331 23.8382L54.2823 32.089C52.8053 33.5662 52.8053 35.9835 54.2825 37.4605V37.4605Z" fill="#FF5D7D"/>
<path fill-rule="evenodd" clip-rule="evenodd" d="M97.3203 22.4207C91.1581 16.2585 83.59 12.3595 75.6485 10.7235L75.6459 10.726L62.5334 23.8386L91.3035 52.6088L104.266 39.6465L106.907 37.0053C104.811 31.6938 101.615 26.7157 97.3203 22.4207V22.4207Z" fill="#FF9EB1"/>
<path fill-rule="evenodd" clip-rule="evenodd" d="M62.5335 23.8383L70.264 16.1079L75.6487 10.7232C61.9656 7.90423 47.1741 11.8033 36.5568 22.4206C25.9401 33.0373 22.0432 47.8277 24.8621 61.5099C29.7788 56.5933 34.6956 51.6765 39.612 46.7599C43.6069 42.765 50.2878 41.4557 54.2827 37.4606C52.8055 35.9834 52.8055 33.5662 54.2827 32.0891L62.5335 23.8383Z" fill="#7A6E6C"/>
<path fill-rule="evenodd" clip-rule="evenodd" d="M91.3035 52.6089L83.0526 60.8597C81.5754 62.3369 79.1583 62.3369 77.6811 60.8597C77.8537 65.5661 78.3334 69.9739 77.4544 74.632C76.1492 81.5494 81.504 88.5301 84.7031 91.937C89.2759 89.8621 93.5599 86.9448 97.3202 83.1845C109.805 70.7001 113 52.4444 106.907 37.0054L104.266 39.6466L91.3035 52.6089Z" fill="#7A6E6C"/>
<path fill-rule="evenodd" clip-rule="evenodd" d="M72.0908 95.4603C67.907 91.5213 65.4152 86.4729 64.857 85.2322C64.074 83.4924 63.8135 83.8321 63.0245 83.372L52.9573 93.4393C59.1247 95.5561 65.6777 96.2305 72.0908 95.4603V95.4603Z" fill="#7A6E6C"/>
<path d="M20.3551 73.5196C21.5667 74.7312 23.1085 75.4156 24.6937 75.5727C24.5648 76.1144 24.4985 76.6756 24.4985 77.2476C24.4985 79.1593 25.2391 80.9527 26.5837 82.2973C27.7804 83.4938 29.299 84.1762 30.8634 84.3443C30.2671 86.7043 30.8902 89.3118 32.733 91.1545C34.5757 92.9972 37.1832 93.6206 39.5434 93.024C39.7115 94.5882 40.3939 96.1071 41.5902 97.3036C42.9347 98.6483 44.7282 99.3888 46.6397 99.3888C46.6399 99.3888 46.6397 99.3888 46.6399 99.3888C48.5515 99.3888 50.345 98.6483 51.6894 97.3038L53.4589 95.5345C59.2409 97.3506 65.4272 97.9803 71.4701 97.3715C73.1536 98.8574 75.0835 100.168 77.2517 101.054C83.4742 103.598 86.3198 100.323 87.0436 99.2583C88.3661 97.3133 88.472 94.7343 87.4633 92.637C89.0183 91.835 90.5308 90.9408 91.9773 89.964C92.8175 89.3966 93.0385 88.2555 92.4711 87.4153C92.1164 86.8901 91.5376 86.6069 90.9482 86.6069C90.5946 86.6069 90.2374 86.7087 89.9224 86.9215C88.4 87.9497 86.7978 88.878 85.1482 89.6927C82.3721 86.5118 78.1919 80.6248 79.2583 74.9722C79.9882 71.1044 79.83 67.3711 79.6515 63.7571C79.887 63.7866 80.1257 63.8032 80.3671 63.8032C81.875 63.8032 83.2897 63.2187 84.3508 62.1576L106.138 40.3705C109.827 52.0351 108.257 65.119 101.056 75.7836C100.488 76.6238 100.709 77.7649 101.55 78.3323C102.39 78.8998 103.531 78.6786 104.098 77.8384C116.065 60.1167 113.76 36.2642 98.6182 21.1224C90.1561 12.6605 78.9053 8.00031 66.9382 8.00031C54.9712 8.00031 43.7202 12.6605 35.2584 21.1224C24.8049 31.5759 20.2138 46.3827 22.8745 60.9009L20.3551 63.4202C17.5707 66.2046 17.5707 70.7352 20.3551 73.5196V73.5196ZM56.4258 92.5669L63.128 85.8649C63.1456 85.9029 63.1638 85.9429 63.1831 85.9853C63.4812 86.6476 65.1724 90.259 68.161 93.9099C64.2109 94.0228 60.2402 93.5679 56.4258 92.5669ZM81.7547 59.5614C81.387 59.929 80.8941 60.1315 80.3669 60.1315C79.8399 60.1315 79.347 59.929 78.9793 59.5614L55.5814 36.1636L55.5804 36.1627L55.5801 36.1623C54.8155 35.397 54.8153 34.1522 55.5804 33.3873L62.5332 26.4345L88.7075 52.6085L81.7547 59.5614ZM104.731 36.5853L91.3038 50.0123L65.1295 23.8384L76.2431 12.7247C83.6749 14.4353 90.4966 18.193 96.0223 23.7187C99.8092 27.5056 102.72 31.8867 104.731 36.5853V36.5853ZM37.8547 23.7185C45.6231 15.9499 55.952 11.6716 66.9384 11.6716C68.5818 11.6716 70.2099 11.7694 71.8172 11.9581L52.9844 30.791C51.2672 32.5081 50.8926 35.0669 51.86 37.1516C50.2278 38.4294 48.2263 39.4248 46.1305 40.4662C43.374 41.8356 40.5237 43.2519 38.3138 45.4615L26.1013 57.674C24.6089 45.1834 28.8729 32.7003 37.8547 23.7185V23.7185ZM22.9514 66.0165L40.9099 48.058C42.6951 46.2727 45.1572 45.0494 47.7639 43.7543C49.9769 42.6547 52.2497 41.5243 54.2036 39.9782L75.8756 61.6497C75.9039 62.312 75.9364 62.9679 75.9681 63.6076C76.1501 67.2721 76.3221 70.7332 75.6506 74.2912C74.1049 82.484 80.7298 90.4492 83.6497 93.4936C84.5927 94.4766 84.7497 96.102 84.0073 97.194C83.1091 98.5146 81.1531 98.6828 78.6406 97.6559C71.154 94.5959 66.7165 84.8903 66.5311 84.4785C65.8511 82.9681 65.2859 82.3423 64.2041 81.9028C64.083 81.8536 64.0216 81.8281 63.9493 81.7859C63.2293 81.3664 62.3163 81.4841 61.7266 82.0737L49.093 94.7074C48.4419 95.3585 47.5706 95.717 46.6397 95.717C45.7088 95.717 44.8374 95.3583 44.1863 94.707C42.8334 93.3542 42.8334 91.153 44.1861 89.8001C44.903 89.0833 44.903 87.9209 44.1861 87.204C43.4691 86.4872 42.3067 86.4872 41.5898 87.204L40.236 88.5579C38.8833 89.9108 36.6819 89.9108 35.3291 88.5579C33.9762 87.2051 33.9762 85.0037 35.3289 83.651L36.683 82.2971H36.6831C37.4 81.5803 37.4 80.4179 36.6831 79.7011C35.9667 78.984 34.8041 78.9838 34.0871 79.7009H34.0869C32.7341 81.0534 30.5327 81.0538 29.18 79.7009C28.5287 79.0497 28.1702 78.1783 28.1702 77.2474C28.1702 76.3165 28.5287 75.4453 29.18 74.794L30.4545 73.5194C31.1714 72.8026 31.1714 71.6402 30.4545 70.9234C29.7375 70.2063 28.5755 70.2063 27.8583 70.9234L27.8537 70.9281C27.2029 71.5763 26.3335 71.9334 25.4048 71.9334C24.4739 71.9334 23.6025 71.5747 22.9514 70.9236C22.3001 70.2724 21.9416 69.401 21.9416 68.4701C21.9416 67.5392 22.3001 66.6676 22.9514 66.0165V66.0165Z" fill="#19191D"/>
<path d="M81.878 51.5263C81.5263 51.2065 81.0846 51.049 80.6438 51.049C80.1443 51.049 79.6465 51.2517 79.2843 51.6502C78.6023 52.4003 78.6576 53.5614 79.4078 54.2434C80.1581 54.9253 81.3188 54.8703 82.001 54.1198L82.0019 54.1189C82.6837 53.3688 82.6281 52.2083 81.878 51.5263V51.5263Z" fill="#19191D"/>
<path d="M97.3205 81.3486C96.3068 81.3486 95.4847 82.1704 95.4847 83.1843C95.4847 84.1982 96.3068 85.02 97.3205 85.02H97.3218C98.3354 85.02 99.1567 84.1982 99.1567 83.1843C99.1567 82.1704 98.3342 81.3486 97.3205 81.3486Z" fill="#19191D"/>
<defs>
<filter id="filter0_d" x="11" y="5" width="108" height="118" filterUnits="userSpaceOnUse" color-interpolation-filters="sRGB">
<feFlood flood-opacity="0" result="BackgroundImageFix"/>
<feColorMatrix in="SourceAlpha" type="matrix" values="0 0 0 0 0 0 0 0 0 0 0 0 0 0 0 0 0 0 127 0"/>
<feOffset dy="14"/>
<feGaussianBlur stdDeviation="2"/>
<feColorMatrix type="matrix" values="0 0 0 0 0 0 0 0 0 0 0 0 0 0 0 0 0 0 0.25 0"/>
<feBlend mode="normal" in2="BackgroundImageFix" result="effect1_dropShadow"/>
<feBlend mode="normal" in="SourceGraphic" in2="effect1_dropShadow" result="shape"/>
</filter>
</defs>
</svg>
