<svg width="130" height="130" viewBox="0 0 130 130" fill="none" xmlns="http://www.w3.org/2000/svg">
<g filter="url(#filter0_d)">
<circle cx="65" cy="55" r="50" fill="white"/>
</g>
<path d="M65 72.5312C60.7353 72.5312 57.2656 76.0009 57.2656 80.2656C57.2656 84.5304 60.7353 88 65 88C69.2647 88 72.7344 84.5304 72.7344 80.2656C72.7344 76.0009 69.2647 72.5312 65 72.5312ZM65 84.1328C62.8676 84.1328 61.1328 82.398 61.1328 80.2656C61.1328 78.1333 62.8676 76.3984 65 76.3984C67.1324 76.3984 68.8672 78.1333 68.8672 80.2656C68.8672 82.398 67.1324 84.1328 65 84.1328Z" fill="#19191D"/>
<path d="M65 22C53.9116 22 44.8906 31.021 44.8906 42.1094V44.043H60.3594V42.1094C60.3594 39.5505 62.4411 37.4688 65 37.4688C67.5589 37.4688 69.6406 39.5505 69.6406 42.1094C69.6406 43.4729 69.0421 44.7636 67.9984 45.6506L57.2656 54.7754V68.6641H72.7344V61.9277L78.0164 57.437C82.524 53.6067 85.1094 48.0201 85.1094 42.1094C85.1094 31.021 76.0884 22 65 22V22ZM75.5119 54.4904L68.8672 60.1396V64.7969H61.1328V56.5635L70.5027 48.5971C72.4125 46.9743 73.5078 44.6096 73.5078 42.1094C73.5078 37.4181 69.6913 33.6016 65 33.6016C60.9736 33.6016 57.5916 36.413 56.7138 40.1758H48.8722C49.8313 32.128 56.6983 25.8672 65 25.8672C73.956 25.8672 81.2422 33.1534 81.2422 42.1094C81.2422 46.8833 79.1538 51.3958 75.5119 54.4904Z" fill="#19191D"/>
<defs>
<filter id="filter0_d" x="11" y="5" width="108" height="118" filterUnits="userSpaceOnUse" color-interpolation-filters="sRGB">
<feFlood flood-opacity="0" result="BackgroundImageFix"/>
<feColorMatrix in="SourceAlpha" type="matrix" values="0 0 0 0 0 0 0 0 0 0 0 0 0 0 0 0 0 0 127 0"/>
<feOffset dy="14"/>
<feGaussianBlur stdDeviation="2"/>
<feColorMatrix type="matrix" values="0 0 0 0 0 0 0 0 0 0 0 0 0 0 0 0 0 0 0.25 0"/>
<feBlend mode="normal" in2="BackgroundImageFix" result="effect1_dropShadow"/>
<feBlend mode="normal" in="SourceGraphic" in2="effect1_dropShadow" result="shape"/>
</filter>
</defs>
</svg>
