<svg width="130" height="130" viewBox="0 0 130 130" fill="none" xmlns="http://www.w3.org/2000/svg">
<g filter="url(#filter0_d)">
<circle cx="65" cy="55" r="50" fill="white"/>
</g>
<path fill-rule="evenodd" clip-rule="evenodd" d="M52.3187 49.1405L75.7174 72.5393C79.7123 68.5442 86.3932 67.235 90.3881 63.2401C95.3047 58.3235 100.221 53.4069 105.138 48.4901C106.207 47.4206 107.277 46.3511 108.347 45.2814C110.41 43.2181 110.41 39.8418 108.347 37.7783C106.283 35.7149 102.907 35.7149 100.844 37.7783L102.118 36.5037C104.182 34.4404 104.182 31.0641 102.118 29.0007C100.055 26.9374 96.6784 26.9374 94.6152 29.0007L95.9692 27.6467C98.0326 25.5834 98.0326 22.2069 95.9692 20.1436C93.9057 18.0802 90.5294 18.0802 88.4661 20.1436L87.1122 21.4974C89.1756 19.4341 89.1756 16.0578 87.1122 13.9943C85.0489 11.9309 81.6724 11.9309 79.6093 13.9943L77.0429 16.5606L66.9756 26.6279C66.1867 26.1679 65.9262 26.5075 65.1432 24.7678C64.585 23.5272 62.0932 18.4786 57.9094 14.5397C56.2262 12.9551 54.2693 11.5498 52.0542 10.6446C44.3331 7.48902 41.8701 14.487 45.0259 17.7768C45.1144 17.8691 45.2049 17.9646 45.2974 18.0628C48.4962 21.4699 53.8511 28.4506 52.5459 35.368C51.6665 40.0263 52.1461 44.434 52.3187 49.1405V49.1405Z" fill="#FFDCD5"/>
<path fill-rule="evenodd" clip-rule="evenodd" d="M75.7175 72.5395L52.3189 49.1406C50.8417 47.6634 48.4244 47.6634 46.9474 49.1406L38.6965 57.3915L67.4669 86.1618L75.7177 77.911C77.1947 76.4338 77.1947 74.0165 75.7175 72.5395V72.5395Z" fill="#7DFF5D"/>
<path fill-rule="evenodd" clip-rule="evenodd" d="M32.6797 87.5793C38.8419 93.7415 46.41 97.6405 54.3515 99.2765L54.3541 99.274L67.4666 86.1614L38.6965 57.3912L25.7343 70.3535L23.093 72.9947C25.189 78.3062 28.3847 83.2843 32.6797 87.5793V87.5793Z" fill="#9EFFC5"/>
<path fill-rule="evenodd" clip-rule="evenodd" d="M67.4665 86.1617L59.736 93.8921L54.3513 99.2768C68.0344 102.096 82.8259 98.1967 93.4432 87.5794C104.06 76.9627 107.957 62.1723 105.138 48.4901C100.221 53.4067 95.3044 58.3235 90.388 63.2401C86.3931 67.235 79.7122 68.5443 75.7173 72.5394C77.1945 74.0166 77.1945 76.4338 75.7173 77.9109L67.4665 86.1617Z" fill="#8DAC6D"/>
<path fill-rule="evenodd" clip-rule="evenodd" d="M38.6965 57.3911L46.9474 49.1403C48.4246 47.6631 50.8417 47.6631 52.3189 49.1403C52.1463 44.4339 51.6666 40.0261 52.5456 35.368C53.8508 28.4506 48.496 21.4699 45.2969 18.063C40.7241 20.1379 36.4401 23.0552 32.6798 26.8155C20.1954 39.2999 16.9998 57.5556 23.0929 72.9946L25.7341 70.3534L38.6965 57.3911Z" fill="#8DAC6D"/>
<path fill-rule="evenodd" clip-rule="evenodd" d="M57.9092 14.5397C62.093 18.4787 64.5848 23.5271 65.143 24.7678C65.926 26.5076 66.1865 26.1679 66.9755 26.628L77.0427 16.5607C70.8753 14.4439 64.3223 13.7695 57.9092 14.5397V14.5397Z" fill="#8DAC6D"/>
<path d="M109.645 36.4804C108.433 35.2688 106.891 34.5844 105.306 34.4273C105.435 33.8856 105.501 33.3244 105.501 32.7524C105.501 30.8407 104.761 29.0473 103.416 27.7027C102.22 26.5062 100.701 25.8238 99.1366 25.6557C99.7329 23.2957 99.1098 20.6882 97.267 18.8455C95.4243 17.0028 92.8168 16.3794 90.4566 16.976C90.2885 15.4118 89.6061 13.8929 88.4098 12.6964C87.0653 11.3517 85.2718 10.6112 83.3603 10.6112C83.3601 10.6112 83.3603 10.6112 83.3601 10.6112C81.4485 10.6112 79.655 11.3517 78.3106 12.6962L76.5411 14.4655C70.7591 12.6494 64.5728 12.0197 58.5299 12.6285C56.8464 11.1426 54.9165 9.83174 52.7483 8.94564C46.5258 6.40243 43.6802 9.67736 42.9564 10.7417C41.6339 12.6867 41.528 15.2657 42.5367 17.363C40.9817 18.165 39.4692 19.0592 38.0227 20.036C37.1825 20.6034 36.9615 21.7445 37.5289 22.5847C37.8836 23.1099 38.4624 23.3931 39.0518 23.3931C39.4054 23.3931 39.7626 23.2913 40.0776 23.0785C41.6 22.0503 43.2022 21.122 44.8518 20.3073C47.6279 23.4882 51.8081 29.3752 50.7417 35.0278C50.0118 38.8956 50.17 42.6289 50.3485 46.2429C50.113 46.2134 49.8743 46.1968 49.6329 46.1968C48.125 46.1968 46.7103 46.7813 45.6492 47.8424L23.8623 69.6295C20.1731 57.9649 21.7431 44.881 28.9443 34.2164C29.5117 33.3762 29.2905 32.2351 28.4503 31.6677C27.6101 31.1002 26.469 31.3214 25.9016 32.1616C13.9353 49.8833 16.24 73.7358 31.3818 88.8776C39.8439 97.3395 51.0947 102 63.0618 102C75.0288 102 86.2798 97.3395 94.7416 88.8776C105.195 78.4241 109.786 63.6173 107.126 49.0991L109.645 46.5798C112.429 43.7954 112.429 39.2648 109.645 36.4804V36.4804ZM73.5742 17.4331L66.872 24.1351C66.8544 24.0971 66.8362 24.0571 66.8169 24.0147C66.5188 23.3524 64.8276 19.741 61.839 16.0901C65.7891 15.9772 69.7598 16.4321 73.5742 17.4331ZM48.2453 50.4386C48.613 50.071 49.1059 49.8685 49.6331 49.8685C50.1601 49.8685 50.653 50.071 51.0207 50.4386L74.4186 73.8364L74.4196 73.8373L74.4199 73.8377C75.1845 74.603 75.1847 75.8478 74.4196 76.6127L67.4668 83.5655L41.2925 57.3915L48.2453 50.4386ZM25.2692 73.4147L38.6962 59.9877L64.8705 86.1616L53.7569 97.2753C46.3251 95.5647 39.5034 91.807 33.9777 86.2813C30.1908 82.4944 27.2804 78.1133 25.2692 73.4147V73.4147ZM92.1453 86.2815C84.3769 94.0501 74.048 98.3284 63.0616 98.3284C61.4182 98.3284 59.7901 98.2306 58.1828 98.0419L77.0156 79.209C78.7328 77.4919 79.1074 74.9331 78.14 72.8484C79.7722 71.5706 81.7737 70.5752 83.8695 69.5338C86.626 68.1644 89.4763 66.7481 91.6862 64.5385L103.899 52.326C105.391 64.8166 101.127 77.2997 92.1453 86.2815V86.2815ZM107.049 43.9835L89.0901 61.942C87.3049 63.7273 84.8428 64.9506 82.2361 66.2457C80.0231 67.3453 77.7503 68.4757 75.7964 70.0218L54.1244 48.3503C54.0961 47.688 54.0636 47.0321 54.0319 46.3924C53.8499 42.7279 53.6779 39.2668 54.3494 35.7088C55.8951 27.516 49.2702 19.5508 46.3503 16.5064C45.4073 15.5234 45.2503 13.898 45.9927 12.806C46.8909 11.4854 48.8469 11.3172 51.3594 12.3441C58.846 15.4041 63.2835 25.1097 63.4689 25.5215C64.1489 27.0319 64.7141 27.6577 65.7959 28.0972C65.917 28.1464 65.9784 28.1719 66.0507 28.2141C66.7707 28.6336 67.6837 28.5159 68.2734 27.9263L80.907 15.2926C81.5581 14.6415 82.4294 14.283 83.3603 14.283C84.2912 14.283 85.1626 14.6417 85.8137 15.293C87.1666 16.6458 87.1666 18.847 85.8139 20.1999C85.097 20.9167 85.097 22.0791 85.8139 22.796C86.5309 23.5128 87.6933 23.5128 88.4102 22.796L89.764 21.4421C91.1167 20.0892 93.3181 20.0892 94.6709 21.4421C96.0238 22.7949 96.0238 24.9963 94.6711 26.349L93.317 27.7029H93.3169C92.6 28.4197 92.6 29.5821 93.3169 30.2989C94.0333 31.016 95.1959 31.0162 95.9129 30.2991H95.9131C97.2659 28.9466 99.4673 28.9462 100.82 30.2991C101.471 30.9503 101.83 31.8217 101.83 32.7526C101.83 33.6835 101.471 34.5547 100.82 35.206L99.5455 36.4806C98.8286 37.1974 98.8286 38.3598 99.5455 39.0766C100.262 39.7937 101.425 39.7937 102.142 39.0766L102.146 39.0719C102.797 38.4237 103.666 38.0666 104.595 38.0666C105.526 38.0666 106.397 38.4253 107.049 39.0764C107.7 39.7276 108.058 40.599 108.058 41.5299C108.058 42.4608 107.7 43.3324 107.049 43.9835V43.9835Z" fill="#19191D"/>
<path d="M48.122 58.4737C48.4737 58.7935 48.9154 58.951 49.3562 58.951C49.8557 58.951 50.3535 58.7483 50.7157 58.3498C51.3977 57.5997 51.3424 56.4386 50.5922 55.7566C49.8419 55.0747 48.6812 55.1297 47.999 55.8802L47.9981 55.8811C47.3163 56.6312 47.3719 57.7917 48.122 58.4737V58.4737Z" fill="#19191D"/>
<path d="M32.6795 28.6514C33.6932 28.6514 34.5153 27.8296 34.5153 26.8157C34.5153 25.8018 33.6932 24.98 32.6795 24.98H32.6782C31.6646 24.98 30.8433 25.8018 30.8433 26.8157C30.8433 27.8296 31.6658 28.6514 32.6795 28.6514Z" fill="#19191D"/>
<defs>
<filter id="filter0_d" x="11" y="5" width="108" height="118" filterUnits="userSpaceOnUse" color-interpolation-filters="sRGB">
<feFlood flood-opacity="0" result="BackgroundImageFix"/>
<feColorMatrix in="SourceAlpha" type="matrix" values="0 0 0 0 0 0 0 0 0 0 0 0 0 0 0 0 0 0 127 0"/>
<feOffset dy="14"/>
<feGaussianBlur stdDeviation="2"/>
<feColorMatrix type="matrix" values="0 0 0 0 0 0 0 0 0 0 0 0 0 0 0 0 0 0 0.25 0"/>
<feBlend mode="normal" in2="BackgroundImageFix" result="effect1_dropShadow"/>
<feBlend mode="normal" in="SourceGraphic" in2="effect1_dropShadow" result="shape"/>
</filter>
</defs>
</svg>
